<svg width="24" height="24" viewBox="0 0 24 24" fill="none" xmlns="http://www.w3.org/2000/svg">
<path d="M19 23L1 23L1 5L10 5L10 7L3 7L3 21L17 21L17 14L19 14L19 23Z" fill="#292929"/>
<path fill-rule="evenodd" clip-rule="evenodd" d="M22.971 5.24284L18.7281 1L14.4855 5.24264L17.314 8.07084L10.3376 15.0458L8.47484 15.4952L8.9248 13.631L14.1317 8.4241L12.7177 7.0101L6.9248 12.803L6 17.9701L11.1676 17.0458L22.971 5.24284ZM17.3138 5.24115L18.7278 3.82815L20.142 5.24234L18.7292 6.6564L17.3138 5.24115Z" fill="#292929"/>
</svg>
