<svg width="28" height="28" viewBox="0 0 28 28" fill="none" xmlns="http://www.w3.org/2000/svg">
<path d="M13.9997 2.33337C20.443 2.33337 25.6663 7.55672 25.6663 14C25.6663 20.4434 20.443 25.6667 13.9997 25.6667H2.33301V23.3334L4.66616 21.0009C3.42092 19.3434 2.60691 17.3435 2.3907 15.1676L4.73855 15.1679C4.92444 16.6601 5.46505 18.0681 6.31219 19.2948L6.53168 19.5994L7.74841 21.219L5.63234 23.3334H13.9997C19.0571 23.3334 23.175 19.3109 23.3286 14.2908L23.333 14C23.333 8.84538 19.1543 4.66671 13.9997 4.66671C9.2401 4.66671 5.31263 8.22937 4.73854 12.8334L2.39062 12.8333C2.97602 6.93777 7.95014 2.33337 13.9997 2.33337Z" fill="#A7ABAF"/>
</svg>
