<svg width="29" height="17" viewBox="0 0 29 17" fill="none" xmlns="http://www.w3.org/2000/svg">
<path d="M13.1543 0.744141V12.4336H11.4844V8.0918H9.02344V6.68555H11.4844V5.0332H9.02344V3.66211H11.4844V0.744141H13.1543ZM8.84766 1.97461V3.32812H7.33594V8.60156C8.00391 8.54883 8.64551 8.49609 9.26953 8.42578L9.33984 9.65625C6.31641 10.1309 2.7832 10.1836 0.251953 10.2012L0.0410156 8.79492C0.629883 8.79492 1.28027 8.79492 1.95703 8.77734V3.32812H0.480469V1.97461H8.84766ZM13.5586 14.8066V16.1602H2.88867V11.4844H4.57617V14.8066H13.5586ZM3.57422 8.75977C4.28613 8.74219 5.00684 8.72461 5.73633 8.68945V3.32812H3.57422V8.75977ZM21.416 3.25781C21.416 5.20898 22.9453 7.03711 25.3711 7.74023L24.5273 9.04102C22.6904 8.4873 21.3018 7.2832 20.5898 5.73633C19.8779 7.38867 18.4717 8.69824 16.582 9.32227L15.7383 8.00391C18.1816 7.24805 19.7109 5.33203 19.7285 3.25781V3.08203H16.1953V1.72852H24.8789V3.08203H21.416V3.25781ZM28.6406 0.744141V9.26953H26.9707V0.744141H28.6406ZM19.9746 10.0078V11.7656H26.9883V10.0078H28.6406V16.3008H18.3398V10.0078H19.9746ZM19.9746 14.9473H26.9883V13.084H19.9746V14.9473Z" fill="currentColor"/>
</svg>
