<svg width="28" height="28" viewBox="0 0 28 28" fill="none" xmlns="http://www.w3.org/2000/svg">
<g id="Icon">
<path id="Icons / Communication/ group" d="M14.0005 21.5V20.25C14.0005 17.5723 11.8114 15.3862 9.06023 15.2561L8.8007 15.25C6.37764 15.25 4.34168 16.8437 3.7646 19.0004L1.10881 19.0002C1.72758 15.453 4.93587 12.75 8.8007 12.75C10.7983 12.75 12.6204 13.4721 14.0003 14.6596C15.3794 13.4725 17.2021 12.75 19.2003 12.75C23.508 12.75 27 16.1079 27 20.25V24H1.00101L1 21.5H14.0005ZM19.2003 15.25C17.816 15.25 16.5581 15.7702 15.6263 16.6183C16.2474 17.6954 16.6004 18.9331 16.6004 20.25V21.5H24.4001V20.25C24.4001 17.5723 22.211 15.3862 19.4598 15.2561L19.2003 15.25ZM19.2003 4C21.3541 4 23.1001 5.67893 23.1001 7.75C23.1001 9.82107 21.3541 11.5 19.2003 11.5C17.0465 11.5 15.3005 9.82107 15.3005 7.75C15.3005 5.67893 17.0465 4 19.2003 4ZM8.8007 4C10.9545 4 12.7006 5.67893 12.7006 7.75C12.7006 9.82107 10.9545 11.5 8.8007 11.5C6.64688 11.5 4.90085 9.82107 4.90085 7.75C4.90085 5.67893 6.64688 4 8.8007 4ZM19.2003 6.5C18.4824 6.5 17.9004 7.05964 17.9004 7.75C17.9004 8.44036 18.4824 9 19.2003 9C19.9182 9 20.5002 8.44036 20.5002 7.75C20.5002 7.05964 19.9182 6.5 19.2003 6.5ZM8.8007 6.5C8.08276 6.5 7.50075 7.05964 7.50075 7.75C7.50075 8.44036 8.08276 9 8.8007 9C9.51865 9 10.1007 8.44036 10.1007 7.75C10.1007 7.05964 9.51865 6.5 8.8007 6.5Z" fill="currentColor"/>
</g>
</svg>
