<svg width="28" height="28" viewBox="0 0 28 28" fill="none" xmlns="http://www.w3.org/2000/svg">
<g id="SNS">
<path id="bg" d="M0 14C0 21.732 6.26801 28 14 28C21.732 28 28 21.732 28 14C28 6.26801 21.732 0 14 0C6.26801 0 0 6.26801 0 14Z" fill="#F00073"/>
<g id="instagram">
<path d="M14 8.04999C15.925 8.04999 16.1875 8.04999 16.975 8.04999C17.675 8.04999 18.025 8.22499 18.2875 8.31249C18.6375 8.48749 18.9 8.57499 19.1625 8.83749C19.425 9.09999 19.6 9.36249 19.6875 9.71249C19.775 9.97499 19.8625 10.325 19.95 11.025C19.95 11.8125 19.95 11.9875 19.95 14C19.95 16.0125 19.95 16.1875 19.95 16.975C19.95 17.675 19.775 18.025 19.6875 18.2875C19.5125 18.6375 19.425 18.9 19.1625 19.1625C18.9 19.425 18.6375 19.6 18.2875 19.6875C18.025 19.775 17.675 19.8625 16.975 19.95C16.1875 19.95 16.0125 19.95 14 19.95C11.9875 19.95 11.8125 19.95 11.025 19.95C10.325 19.95 9.97499 19.775 9.71249 19.6875C9.36249 19.5125 9.09999 19.425 8.83749 19.1625C8.57499 18.9 8.39999 18.6375 8.31249 18.2875C8.22499 18.025 8.13749 17.675 8.04999 16.975C8.04999 16.1875 8.04999 16.0125 8.04999 14C8.04999 11.9875 8.04999 11.8125 8.04999 11.025C8.04999 10.325 8.22499 9.97499 8.31249 9.71249C8.48749 9.36249 8.57499 9.09999 8.83749 8.83749C9.09999 8.57499 9.36249 8.39999 9.71249 8.31249C9.97499 8.22499 10.325 8.13749 11.025 8.04999C11.8125 8.04999 12.075 8.04999 14 8.04999ZM14 6.73749C11.9875 6.73749 11.8125 6.73749 11.025 6.73749C10.2375 6.73749 9.71249 6.91249 9.27499 7.08749C8.83749 7.26249 8.39999 7.52499 7.96249 7.96249C7.52499 8.39999 7.34999 8.74999 7.08749 9.27499C6.91249 9.71249 6.82499 10.2375 6.73749 11.025C6.73749 11.8125 6.73749 12.075 6.73749 14C6.73749 16.0125 6.73749 16.1875 6.73749 16.975C6.73749 17.7625 6.91249 18.2875 7.08749 18.725C7.26249 19.1625 7.52499 19.6 7.96249 20.0375C8.39999 20.475 8.74999 20.65 9.27499 20.9125C9.71249 21.0875 10.2375 21.175 11.025 21.2625C11.8125 21.2625 12.075 21.2625 14 21.2625C15.925 21.2625 16.1875 21.2625 16.975 21.2625C17.7625 21.2625 18.2875 21.0875 18.725 20.9125C19.1625 20.7375 19.6 20.475 20.0375 20.0375C20.475 19.6 20.65 19.25 20.9125 18.725C21.0875 18.2875 21.175 17.7625 21.2625 16.975C21.2625 16.1875 21.2625 15.925 21.2625 14C21.2625 12.075 21.2625 11.8125 21.2625 11.025C21.2625 10.2375 21.0875 9.71249 20.9125 9.27499C20.7375 8.83749 20.475 8.39999 20.0375 7.96249C19.6 7.52499 19.25 7.34999 18.725 7.08749C18.2875 6.91249 17.7625 6.82499 16.975 6.73749C16.1875 6.73749 16.0125 6.73749 14 6.73749Z" fill="white"/>
<path d="M14 10.2375C11.9 10.2375 10.2375 11.9 10.2375 14C10.2375 16.1 11.9 17.7625 14 17.7625C16.1 17.7625 17.7625 16.1 17.7625 14C17.7625 11.9 16.1 10.2375 14 10.2375ZM14 16.45C12.6875 16.45 11.55 15.4 11.55 14C11.55 12.6875 12.6 11.55 14 11.55C15.3125 11.55 16.45 12.6 16.45 14C16.45 15.3125 15.3125 16.45 14 16.45Z" fill="white"/>
<path d="M17.85 11.025C18.3332 11.025 18.725 10.6332 18.725 10.15C18.725 9.66674 18.3332 9.27499 17.85 9.27499C17.3667 9.27499 16.975 9.66674 16.975 10.15C16.975 10.6332 17.3667 11.025 17.85 11.025Z" fill="white"/>
</g>
</g>
</svg>
