<svg width="24" height="24" viewBox="0 0 24 24" fill="none" xmlns="http://www.w3.org/2000/svg">
<g id="link" clip-path="url(#clip0_20_2501)">
<path id="Vector" d="M12 3.99997L8.79996 7.19997L10.4 8.79998L13.6 5.59997C14.92 4.27997 17.08 4.27997 18.4 5.59997C19.72 6.91997 19.72 9.07998 18.4 10.4L15.2 13.6L16.8 15.2L20 12C22.208 9.79198 22.208 6.20797 20 3.99997C17.792 1.79196 14.208 1.79196 12 3.99997ZM13.6 15.2L10.4 18.4C9.07997 19.72 6.91996 19.72 5.59996 18.4C4.27995 17.08 4.27995 14.92 5.59996 13.6L8.79996 10.4L7.19996 8.79998L3.99995 12C1.79194 14.208 1.79194 17.792 3.99995 20C6.20796 22.208 9.79197 22.208 12 20L15.2 16.8L13.6 15.2ZM7.99996 14.4L14.4 7.99998L16 9.59998L9.59997 16L7.99996 14.4Z" fill="#A1A8B3"/>
</g>
<defs>
<clipPath id="clip0_20_2501">
<rect width="24" height="24" fill="white"/>
</clipPath>
</defs>
</svg>
