<svg width="24" height="24" viewBox="0 0 24 24" fill="none" xmlns="http://www.w3.org/2000/svg">
<g id="Icon">
<path id="Icons / Action / search" fill-rule="evenodd" clip-rule="evenodd" d="M18.7004 10C18.7004 5.58172 15.0332 2 10.5094 2C6.33235 2 2.88556 5.05369 2.38171 9H4.45104C4.93849 6.16229 7.46539 4 10.5094 4C13.9022 4 16.6527 6.68629 16.6527 10C16.6527 13.3137 13.9022 16 10.5094 16C7.46539 16 4.93849 13.8377 4.45104 11H2.38171C2.88556 14.9463 6.33235 18 10.5094 18C12.4022 18 14.1451 17.3729 15.5322 16.3199L21.1208 21.7782L22.5688 20.364L16.9802 14.9056C18.0584 13.551 18.7004 11.8487 18.7004 10Z" fill="#A1A8B3"/>
</g>
</svg>
