<svg width="28" height="28" viewBox="0 0 28 28" fill="none" xmlns="http://www.w3.org/2000/svg">
<g id="Icon">
<path id="Icons / Action / settings" fill-rule="evenodd" clip-rule="evenodd" d="M17.3473 2.46149L22.3189 5.33013L22.0377 6.2231C21.7293 7.20287 21.8373 8.26537 22.3609 9.17229C22.8442 10.0095 23.6195 10.6063 24.5247 10.8683L24.7536 10.9268L25.6674 11.1297V16.8695L24.7536 17.0724C23.7508 17.2951 22.8845 17.9199 22.3609 18.8269C21.8809 19.6583 21.7502 20.6203 21.9693 21.5296L22.0377 21.7761L22.3188 22.6689L17.3479 25.5386L16.7153 24.8489C16.021 24.0919 15.0469 23.6542 13.9997 23.6542C13.0331 23.6542 12.1287 24.0272 11.4492 24.68L11.2841 24.8489L10.6515 25.5386L5.68064 22.6689L5.9617 21.7761C6.27016 20.7963 6.16217 19.7338 5.63856 18.8269C5.1552 17.9897 4.37993 17.393 3.47478 17.1309L3.24589 17.0724L2.33217 16.8695L2.33191 15.1665H4.88458L5.15291 15.2929C6.00425 15.7204 6.74875 16.3477 7.31918 17.1355L7.50279 17.404L7.65929 17.6603C8.2464 18.6772 8.51348 19.8175 8.45968 20.9499L8.43705 21.2584L8.40009 21.5448L10.2644 22.6204L10.4359 22.4892C11.2897 21.8606 12.3004 21.4643 13.3753 21.3531L13.6996 21.3283L13.9997 21.3209C15.1969 21.3209 16.3389 21.6732 17.3047 22.3089L17.5636 22.4892L17.7346 22.6204L19.5978 21.5448L19.5624 21.2584C19.4615 20.2416 19.6205 19.2086 20.0389 18.2552L20.188 17.9406L20.3401 17.6603C20.9388 16.6233 21.815 15.8104 22.8486 15.2919L23.1343 15.1578L23.3334 15.0756V12.9219L23.1343 12.8414C22.1628 12.4163 21.3141 11.739 20.6803 10.8637L20.4967 10.5952L20.3401 10.339C19.753 9.32205 19.486 8.1817 19.5398 7.04931L19.5624 6.74077L19.5978 6.45278L17.7334 5.37711L17.5629 5.51049C16.5455 6.25926 15.3055 6.67831 13.9997 6.67831C12.8028 6.67831 11.661 6.32619 10.6954 5.69076L10.4365 5.51049L10.2644 5.37711L8.40009 6.45278L8.43705 6.74077C8.53798 7.75764 8.37894 8.79063 7.96055 9.74396L7.81148 10.0587L7.65929 10.339C7.06063 11.3759 6.18444 12.1888 5.15094 12.7073L4.87991 12.8332H2.33191L2.33217 11.1297L3.24589 10.9268C4.24869 10.704 5.11492 10.0793 5.63856 9.17229C6.11854 8.34095 6.24927 7.37888 6.03014 6.46963L5.9617 6.2231L5.68058 5.33013L10.6521 2.46149L11.2846 3.15079C11.9789 3.90747 12.9528 4.34498 13.9997 4.34498C14.9661 4.34498 15.8703 3.97219 16.5498 3.31969L16.7148 3.15079L17.3473 2.46149ZM14.0001 8.16661C17.2218 8.16661 19.8334 10.7783 19.8334 13.9999C19.8334 17.2216 17.2218 19.8333 14.0001 19.8333C10.7784 19.8333 8.16676 17.2216 8.16676 13.9999C8.16676 10.7783 10.7784 8.16661 14.0001 8.16661ZM10.2665 14C10.2665 11.9381 11.938 10.2667 13.9998 10.2667C16.0617 10.2667 17.7331 11.9381 17.7331 14C17.7331 16.0619 16.0617 17.7333 13.9998 17.7333C11.938 17.7333 10.2665 16.0619 10.2665 14Z" fill="currentColor"/>
</g>
</svg>
